<svg width="61" height="56" viewBox="0 0 61 56" fill="none" xmlns="http://www.w3.org/2000/svg">
<path d="M55.6812 29.1019V1.77964C55.6812 0.804893 54.8909 0.0146484 53.9162 0.0146484H6.62836C5.65362 0.0146484 4.86337 0.804893 4.86337 1.77964V31.28C4.01194 31.404 3.17957 31.7346 2.44322 32.2812C0.121903 33.9273 -0.427126 37.6109 1.5173 39.8827L9.46717 49.5204C14.3882 55.2798 19.6157 55.9854 27.3871 55.9854C34.0561 55.9854 37.0376 56.0148 42.8497 54.6905L48.5092 53.3369C49.4269 54.6184 50.8837 55.4485 52.5215 55.4485H55.3095C58.0796 55.4485 60.3332 53.0744 60.3332 50.1561V34.3784C60.3333 31.592 58.2782 29.3031 55.6812 29.1019ZM47.7479 32.7326L45.3962 31.5382C41.5296 29.5865 37.0591 29.5142 33.1314 31.3403C32.0599 31.7618 29.7227 33.1759 28.5103 33.1286H20.35C17.6432 33.1286 15.441 35.3307 15.441 38.0376V39.3247C15.4258 39.3087 15.4099 39.2936 15.3949 39.2773L9.56754 32.9519C9.2149 32.5692 8.81871 32.2489 8.39347 31.9919V14.481H22.8373V20.951C22.8373 21.9257 23.6276 22.7159 24.6023 22.7159H35.7395C36.7143 22.7159 37.5045 21.9257 37.5045 20.951V14.481H52.1513V29.1018C50.0891 29.2611 48.3695 30.7364 47.7479 32.7326ZM26.3672 14.481H33.9744V19.186H26.3672V14.481ZM52.1512 10.951H37.5045V3.54463H52.1513V10.951H52.1512ZM33.9745 3.54463V10.9511H26.3673V3.54463H33.9745ZM22.8372 3.54463V10.9511H8.39335V3.54463H22.8372ZM42.0305 51.2568C36.6614 52.4865 33.4278 52.4367 27.4504 52.4367C20.1551 52.4367 16.6302 52.3188 12.1904 47.274L4.24057 37.6363C2.85776 35.8357 5.36239 33.7101 6.97136 35.3435L12.7988 41.669C14.3389 43.2941 16.277 44.1885 18.6657 44.2411H34.8222C35.7969 44.2411 36.5872 43.4508 36.5872 42.4761C36.5872 41.5013 35.7969 40.7111 34.8222 40.7111H18.9708V38.0373C18.9708 37.277 19.5894 36.6583 20.3499 36.6583H28.5102C30.3486 36.79 33.0021 35.2549 34.6196 34.541C37.5612 33.1733 40.9095 33.2274 43.8016 34.6872L47.498 36.5646V49.9489L42.0305 51.2568ZM56.8034 50.156C56.8034 51.1278 56.1333 51.9184 55.3096 51.9184H52.5216C51.698 51.9184 51.028 51.1278 51.028 50.156V34.3784C51.028 33.4066 51.6981 32.6159 52.5216 32.6159H55.3096C56.1333 32.6159 56.8034 33.4065 56.8034 34.3784V50.156Z" fill="#242424"/>
</svg>
