<svg width="61" height="60" viewBox="0 0 61 60" fill="none" xmlns="http://www.w3.org/2000/svg">
<g clip-path="url(#clip0_1405_1305)">
<path d="M57.4527 21.2612C56.661 18.8097 56.9985 15.1296 54.9406 12.2882C52.8667 9.42438 49.2595 8.61039 47.2227 7.1207C45.2073 5.64672 43.3323 2.43918 39.9422 1.33293C36.6477 0.257852 33.2788 1.71672 30.6667 1.71672C28.0549 1.71672 24.6862 0.2575 21.3911 1.33281C18.0016 2.43883 16.1251 5.64707 14.111 7.12035C12.0764 8.60828 8.46654 9.42449 6.39291 12.2879C4.33685 15.127 4.67095 18.8154 3.88064 21.2611C3.12853 23.5888 0.666656 26.3825 0.666656 30.0003C0.666656 33.6203 3.12572 36.4032 3.88064 38.7393C4.67236 41.1909 4.33486 44.8709 6.39267 47.7123C8.46654 50.5763 12.0736 51.3902 14.1106 52.88C16.1257 54.3537 18.001 57.5615 21.3911 58.6676C24.6834 59.742 28.0576 58.2838 30.6667 58.2838C33.2721 58.2838 36.6541 59.7405 39.9422 58.6677C43.3318 57.5617 45.2072 54.3542 47.2223 52.8802C49.2569 51.3923 52.8668 50.5761 54.9404 47.7127C56.9966 44.8735 56.6622 41.1854 57.4527 38.7394C58.2048 36.4116 60.6667 33.618 60.6667 30.0003C60.6667 26.3805 58.2082 23.5984 57.4527 21.2612ZM52.9924 37.298C52.0695 40.1545 52.3113 43.3512 51.1441 44.963C49.9612 46.5962 46.8535 47.3423 44.4555 49.0963C42.0838 50.8308 40.4215 53.5804 38.4881 54.2112C36.659 54.8082 33.6783 53.5961 30.6668 53.5961C27.6333 53.5961 24.6832 54.8107 22.8453 54.2112C20.9122 53.5804 19.2522 50.8327 16.8779 49.0962C14.4941 47.3528 11.3687 46.5914 10.1892 44.9628C9.02576 43.3564 9.25838 40.1375 8.34115 37.2981C7.44209 34.5162 5.35416 32.1074 5.35416 30.0003C5.35416 27.891 7.44021 25.4905 8.34091 22.7025C9.26377 19.8462 9.02201 16.6492 10.1892 15.0375C11.3714 13.4054 14.4814 12.6569 16.8779 10.9042C19.2572 9.1641 20.909 6.42109 22.8451 5.78934C24.6726 5.19309 27.6631 6.40445 30.6665 6.40445C33.7056 6.40445 36.6483 5.18898 38.488 5.78934C40.4209 6.42004 42.0822 9.16879 44.4555 10.9043C46.839 12.6477 49.9646 13.4091 51.1441 15.0377C52.3078 16.6444 52.0739 19.86 52.9922 22.7023V22.7024C53.8912 25.4843 55.9792 27.8931 55.9792 30.0003C55.9792 32.1095 53.8931 34.51 52.9924 37.298ZM41.4647 22.4774C42.38 23.3928 42.38 24.8767 41.4647 25.792L29.7335 37.5231C28.8181 38.4385 27.3341 38.4384 26.4188 37.5231L19.8688 30.973C18.9534 30.0577 18.9533 28.5737 19.8686 27.6585C20.784 26.7433 22.2682 26.7432 23.1832 27.6585L28.0761 32.5513L38.1499 22.4775C39.0653 21.5622 40.5493 21.5622 41.4647 22.4774Z" fill="#242424"/>
</g>
<defs>
<clipPath id="clip0_1405_1305">
<rect width="60" height="60" fill="white" transform="translate(0.666656)"/>
</clipPath>
</defs>
</svg>
